<svg width="109" height="17" viewBox="0 0 109 17" fill="none" xmlns="http://www.w3.org/2000/svg">
<path d="M8.30867 16.24C7.20201 16.24 6.18201 16.0667 5.24867 15.72C4.32867 15.36 3.52201 14.8533 2.82867 14.2C2.14867 13.5467 1.61534 12.78 1.22867 11.9C0.855339 11.02 0.668672 10.0533 0.668672 9C0.668672 7.94667 0.855339 6.98 1.22867 6.1C1.61534 5.22 2.15534 4.45333 2.84867 3.8C3.54201 3.14667 4.35534 2.64667 5.28867 2.3C6.22201 1.94 7.24867 1.76 8.36867 1.76C9.60867 1.76 10.722 1.96667 11.7087 2.38C12.7087 2.79333 13.5487 3.39333 14.2287 4.18L12.1487 6.1C11.642 5.56667 11.0887 5.17333 10.4887 4.92C9.88867 4.65333 9.23534 4.52 8.52867 4.52C7.84867 4.52 7.22867 4.62667 6.66867 4.84C6.10867 5.05333 5.62201 5.36 5.20867 5.76C4.80867 6.16 4.49534 6.63333 4.26867 7.18C4.05534 7.72667 3.94867 8.33333 3.94867 9C3.94867 9.65333 4.05534 10.2533 4.26867 10.8C4.49534 11.3467 4.80867 11.8267 5.20867 12.24C5.62201 12.64 6.10201 12.9467 6.64867 13.16C7.20867 13.3733 7.82201 13.48 8.48867 13.48C9.12867 13.48 9.74867 13.38 10.3487 13.18C10.962 12.9667 11.5553 12.6133 12.1287 12.12L13.9687 14.46C13.2087 15.0333 12.322 15.4733 11.3087 15.78C10.3087 16.0867 9.30867 16.24 8.30867 16.24ZM11.0087 14.04V8.78H13.9687V14.46L11.0087 14.04ZM22.0984 16.16C20.8717 16.16 19.7917 15.92 18.8584 15.44C17.9384 14.96 17.225 14.3067 16.7184 13.48C16.2117 12.64 15.9584 11.6867 15.9584 10.62C15.9584 9.54 16.205 8.58667 16.6984 7.76C17.205 6.92 17.8917 6.26667 18.7584 5.8C19.625 5.32 20.605 5.08 21.6984 5.08C22.7517 5.08 23.6984 5.30667 24.5384 5.76C25.3917 6.2 26.065 6.84 26.5584 7.68C27.0517 8.50667 27.2984 9.5 27.2984 10.66C27.2984 10.78 27.2917 10.92 27.2784 11.08C27.265 11.2267 27.2517 11.3667 27.2384 11.5H18.4984V9.68H25.5984L24.3984 10.22C24.3984 9.66 24.285 9.17333 24.0584 8.76C23.8317 8.34667 23.5184 8.02667 23.1184 7.8C22.7184 7.56 22.2517 7.44 21.7184 7.44C21.185 7.44 20.7117 7.56 20.2984 7.8C19.8984 8.02667 19.585 8.35333 19.3584 8.78C19.1317 9.19333 19.0184 9.68667 19.0184 10.26V10.74C19.0184 11.3267 19.145 11.8467 19.3984 12.3C19.665 12.74 20.0317 13.08 20.4984 13.32C20.9784 13.5467 21.5384 13.66 22.1784 13.66C22.7517 13.66 23.2517 13.5733 23.6784 13.4C24.1184 13.2267 24.5184 12.9667 24.8784 12.62L26.5384 14.42C26.045 14.98 25.425 15.4133 24.6784 15.72C23.9317 16.0133 23.0717 16.16 22.0984 16.16ZM33.7755 16.16C32.5089 16.16 31.5222 15.84 30.8155 15.2C30.1089 14.5467 29.7555 13.58 29.7555 12.3V2.86H32.8755V12.26C32.8755 12.7133 32.9955 13.0667 33.2355 13.32C33.4755 13.56 33.8022 13.68 34.2155 13.68C34.7089 13.68 35.1289 13.5467 35.4755 13.28L36.3155 15.48C35.9955 15.7067 35.6089 15.88 35.1555 16C34.7155 16.1067 34.2555 16.16 33.7755 16.16ZM28.0955 7.88V5.48H35.5555V7.88H28.0955ZM43.731 16V5.24H46.851V16H43.731ZM45.291 3.74C44.7177 3.74 44.251 3.57333 43.891 3.24C43.531 2.90667 43.351 2.49333 43.351 2C43.351 1.50667 43.531 1.09333 43.891 0.76C44.251 0.426666 44.7177 0.259999 45.291 0.259999C45.8643 0.259999 46.331 0.419999 46.691 0.74C47.051 1.04667 47.231 1.44667 47.231 1.94C47.231 2.46 47.051 2.89333 46.691 3.24C46.3443 3.57333 45.8777 3.74 45.291 3.74ZM54.1466 16.16C52.88 16.16 51.8933 15.84 51.1866 15.2C50.48 14.5467 50.1266 13.58 50.1266 12.3V2.86H53.2466V12.26C53.2466 12.7133 53.3666 13.0667 53.6066 13.32C53.8466 13.56 54.1733 13.68 54.5866 13.68C55.08 13.68 55.5 13.5467 55.8466 13.28L56.6866 15.48C56.3666 15.7067 55.98 15.88 55.5266 16C55.0866 16.1067 54.6266 16.16 54.1466 16.16ZM48.4666 7.88V5.48H55.9266V7.88H48.4666ZM70.6421 5.08C71.4954 5.08 72.2554 5.25333 72.9221 5.6C73.6021 5.93333 74.1354 6.45333 74.5221 7.16C74.9088 7.85333 75.1021 8.74667 75.1021 9.84V16H71.9821V10.32C71.9821 9.45333 71.7888 8.81333 71.4021 8.4C71.0288 7.98667 70.4954 7.78 69.8021 7.78C69.3088 7.78 68.8621 7.88667 68.4621 8.1C68.0754 8.3 67.7688 8.61333 67.5421 9.04C67.3288 9.46667 67.2221 10.0133 67.2221 10.68V16H64.1021V5.24H67.0821V8.22L66.5221 7.32C66.9088 6.6 67.4621 6.04667 68.1821 5.66C68.9021 5.27333 69.7221 5.08 70.6421 5.08ZM83.1284 16.16C81.9817 16.16 80.9617 15.92 80.0684 15.44C79.1884 14.96 78.4884 14.3067 77.9684 13.48C77.4617 12.64 77.2084 11.6867 77.2084 10.62C77.2084 9.54 77.4617 8.58667 77.9684 7.76C78.4884 6.92 79.1884 6.26667 80.0684 5.8C80.9617 5.32 81.9817 5.08 83.1284 5.08C84.2617 5.08 85.275 5.32 86.1684 5.8C87.0617 6.26667 87.7617 6.91333 88.2684 7.74C88.775 8.56667 89.0284 9.52667 89.0284 10.62C89.0284 11.6867 88.775 12.64 88.2684 13.48C87.7617 14.3067 87.0617 14.96 86.1684 15.44C85.275 15.92 84.2617 16.16 83.1284 16.16ZM83.1284 13.6C83.6484 13.6 84.115 13.48 84.5284 13.24C84.9417 13 85.2684 12.66 85.5084 12.22C85.7484 11.7667 85.8684 11.2333 85.8684 10.62C85.8684 9.99333 85.7484 9.46 85.5084 9.02C85.2684 8.58 84.9417 8.24 84.5284 8C84.115 7.76 83.6484 7.64 83.1284 7.64C82.6084 7.64 82.1417 7.76 81.7284 8C81.315 8.24 80.9817 8.58 80.7284 9.02C80.4884 9.46 80.3684 9.99333 80.3684 10.62C80.3684 11.2333 80.4884 11.7667 80.7284 12.22C80.9817 12.66 81.315 13 81.7284 13.24C82.1417 13.48 82.6084 13.6 83.1284 13.6ZM93.2809 16L89.4009 5.24H92.3409L95.5609 14.5H94.1609L97.5209 5.24H100.161L103.421 14.5H102.021L105.341 5.24H108.101L104.201 16H101.181L98.3209 8.06H99.2409L96.2809 16H93.2809Z" fill="black"/>
</svg>
