<svg width="160" height="53" viewBox="0 0 160 53" fill="none" xmlns="http://www.w3.org/2000/svg">
<rect x="2.5" y="2.5" width="155" height="48" rx="11.5" stroke="#BA42F2" stroke-opacity="0.44" stroke-width="5"/>
<path d="M34.3087 34.24C33.202 34.24 32.182 34.0667 31.2487 33.72C30.3287 33.36 29.522 32.8533 28.8287 32.2C28.1487 31.5467 27.6153 30.78 27.2287 29.9C26.8553 29.02 26.6687 28.0533 26.6687 27C26.6687 25.9467 26.8553 24.98 27.2287 24.1C27.6153 23.22 28.1553 22.4533 28.8487 21.8C29.542 21.1467 30.3553 20.6467 31.2887 20.3C32.222 19.94 33.2487 19.76 34.3687 19.76C35.6087 19.76 36.722 19.9667 37.7087 20.38C38.7087 20.7933 39.5487 21.3933 40.2287 22.18L38.1487 24.1C37.642 23.5667 37.0887 23.1733 36.4887 22.92C35.8887 22.6533 35.2353 22.52 34.5287 22.52C33.8487 22.52 33.2287 22.6267 32.6687 22.84C32.1087 23.0533 31.622 23.36 31.2087 23.76C30.8087 24.16 30.4953 24.6333 30.2687 25.18C30.0553 25.7267 29.9487 26.3333 29.9487 27C29.9487 27.6533 30.0553 28.2533 30.2687 28.8C30.4953 29.3467 30.8087 29.8267 31.2087 30.24C31.622 30.64 32.102 30.9467 32.6487 31.16C33.2087 31.3733 33.822 31.48 34.4887 31.48C35.1287 31.48 35.7487 31.38 36.3487 31.18C36.962 30.9667 37.5553 30.6133 38.1287 30.12L39.9687 32.46C39.2087 33.0333 38.322 33.4733 37.3087 33.78C36.3087 34.0867 35.3087 34.24 34.3087 34.24ZM37.0087 32.04V26.78H39.9687V32.46L37.0087 32.04ZM48.0984 34.16C46.8717 34.16 45.7917 33.92 44.8584 33.44C43.9384 32.96 43.225 32.3067 42.7184 31.48C42.2117 30.64 41.9584 29.6867 41.9584 28.62C41.9584 27.54 42.205 26.5867 42.6984 25.76C43.205 24.92 43.8917 24.2667 44.7584 23.8C45.625 23.32 46.605 23.08 47.6984 23.08C48.7517 23.08 49.6984 23.3067 50.5384 23.76C51.3917 24.2 52.065 24.84 52.5584 25.68C53.0517 26.5067 53.2984 27.5 53.2984 28.66C53.2984 28.78 53.2917 28.92 53.2784 29.08C53.265 29.2267 53.2517 29.3667 53.2384 29.5H44.4984V27.68H51.5984L50.3984 28.22C50.3984 27.66 50.285 27.1733 50.0584 26.76C49.8317 26.3467 49.5184 26.0267 49.1184 25.8C48.7184 25.56 48.2517 25.44 47.7184 25.44C47.185 25.44 46.7117 25.56 46.2984 25.8C45.8984 26.0267 45.585 26.3533 45.3584 26.78C45.1317 27.1933 45.0184 27.6867 45.0184 28.26V28.74C45.0184 29.3267 45.145 29.8467 45.3984 30.3C45.665 30.74 46.0317 31.08 46.4984 31.32C46.9784 31.5467 47.5384 31.66 48.1784 31.66C48.7517 31.66 49.2517 31.5733 49.6784 31.4C50.1184 31.2267 50.5184 30.9667 50.8784 30.62L52.5384 32.42C52.045 32.98 51.425 33.4133 50.6784 33.72C49.9317 34.0133 49.0717 34.16 48.0984 34.16ZM59.7755 34.16C58.5089 34.16 57.5222 33.84 56.8155 33.2C56.1089 32.5467 55.7555 31.58 55.7555 30.3V20.86H58.8755V30.26C58.8755 30.7133 58.9955 31.0667 59.2355 31.32C59.4755 31.56 59.8022 31.68 60.2155 31.68C60.7089 31.68 61.1289 31.5467 61.4755 31.28L62.3155 33.48C61.9955 33.7067 61.6089 33.88 61.1555 34C60.7155 34.1067 60.2555 34.16 59.7755 34.16ZM54.0955 25.88V23.48H61.5555V25.88H54.0955ZM69.731 34V23.24H72.851V34H69.731ZM71.291 21.74C70.7177 21.74 70.251 21.5733 69.891 21.24C69.531 20.9067 69.351 20.4933 69.351 20C69.351 19.5067 69.531 19.0933 69.891 18.76C70.251 18.4267 70.7177 18.26 71.291 18.26C71.8643 18.26 72.331 18.42 72.691 18.74C73.051 19.0467 73.231 19.4467 73.231 19.94C73.231 20.46 73.051 20.8933 72.691 21.24C72.3443 21.5733 71.8777 21.74 71.291 21.74ZM80.1466 34.16C78.88 34.16 77.8933 33.84 77.1866 33.2C76.48 32.5467 76.1266 31.58 76.1266 30.3V20.86H79.2466V30.26C79.2466 30.7133 79.3666 31.0667 79.6066 31.32C79.8466 31.56 80.1733 31.68 80.5866 31.68C81.08 31.68 81.5 31.5467 81.8466 31.28L82.6866 33.48C82.3666 33.7067 81.98 33.88 81.5266 34C81.0866 34.1067 80.6266 34.16 80.1466 34.16ZM74.4666 25.88V23.48H81.9266V25.88H74.4666ZM96.6421 23.08C97.4954 23.08 98.2554 23.2533 98.9221 23.6C99.6021 23.9333 100.135 24.4533 100.522 25.16C100.909 25.8533 101.102 26.7467 101.102 27.84V34H97.9821V28.32C97.9821 27.4533 97.7888 26.8133 97.4021 26.4C97.0288 25.9867 96.4954 25.78 95.8021 25.78C95.3088 25.78 94.8621 25.8867 94.4621 26.1C94.0754 26.3 93.7688 26.6133 93.5421 27.04C93.3288 27.4667 93.2221 28.0133 93.2221 28.68V34H90.1021V23.24H93.0821V26.22L92.5221 25.32C92.9088 24.6 93.4621 24.0467 94.1821 23.66C94.9021 23.2733 95.7221 23.08 96.6421 23.08ZM109.128 34.16C107.982 34.16 106.962 33.92 106.068 33.44C105.188 32.96 104.488 32.3067 103.968 31.48C103.462 30.64 103.208 29.6867 103.208 28.62C103.208 27.54 103.462 26.5867 103.968 25.76C104.488 24.92 105.188 24.2667 106.068 23.8C106.962 23.32 107.982 23.08 109.128 23.08C110.262 23.08 111.275 23.32 112.168 23.8C113.062 24.2667 113.762 24.9133 114.268 25.74C114.775 26.5667 115.028 27.5267 115.028 28.62C115.028 29.6867 114.775 30.64 114.268 31.48C113.762 32.3067 113.062 32.96 112.168 33.44C111.275 33.92 110.262 34.16 109.128 34.16ZM109.128 31.6C109.648 31.6 110.115 31.48 110.528 31.24C110.942 31 111.268 30.66 111.508 30.22C111.748 29.7667 111.868 29.2333 111.868 28.62C111.868 27.9933 111.748 27.46 111.508 27.02C111.268 26.58 110.942 26.24 110.528 26C110.115 25.76 109.648 25.64 109.128 25.64C108.608 25.64 108.142 25.76 107.728 26C107.315 26.24 106.982 26.58 106.728 27.02C106.488 27.46 106.368 27.9933 106.368 28.62C106.368 29.2333 106.488 29.7667 106.728 30.22C106.982 30.66 107.315 31 107.728 31.24C108.142 31.48 108.608 31.6 109.128 31.6ZM119.281 34L115.401 23.24H118.341L121.561 32.5H120.161L123.521 23.24H126.161L129.421 32.5H128.021L131.341 23.24H134.101L130.201 34H127.181L124.321 26.06H125.241L122.281 34H119.281Z" fill="black"/>
</svg>
