<svg width="128" height="132" viewBox="0 0 128 132" fill="none" xmlns="http://www.w3.org/2000/svg">
<g clip-path="url(#clip0_1112_53)">
<path d="M128 66C128.008 73.217 126.866 80.3863 124.62 87.2215C124.491 87.6121 124.359 88.0013 124.224 88.3892C121.846 95.1721 118.407 101.508 114.043 107.145C112.74 108.83 111.36 110.445 109.902 111.991C108.444 113.54 106.913 115.012 105.31 116.41C96.368 124.23 85.5054 129.352 73.92 131.211H73.9181C72.4412 131.447 70.9498 131.632 69.4438 131.764C67.6507 131.92 65.8361 131.999 64 132C55.4617 132.011 47.0081 130.255 39.14 126.836C31.2719 123.416 24.1494 118.403 18.1946 112.093C17.7761 111.651 17.364 111.203 16.9581 110.749C15.947 109.619 14.9744 108.453 14.0403 107.252C13.5158 106.576 13.0039 105.89 12.5046 105.194C9.42942 100.909 6.87083 96.2553 4.88523 91.3338C4.03846 89.2378 3.29898 87.0973 2.66984 84.9213C2.6244 84.7671 2.58085 84.6128 2.5373 84.4585C2.44262 84.1266 2.35111 83.7927 2.26274 83.4568C0.756496 77.7681 -0.00450553 71.897 2.00662e-05 66C2.00662e-05 29.5496 28.6542 0 64 0C99.3458 0 128 29.5496 128 66Z" fill="#F2F2F2"/>
<path d="M27.1428 39.45C27.0438 40.0704 27.0778 40.7057 27.2425 41.311C27.4073 41.9164 27.6987 42.4772 28.0964 42.9538C28.494 43.4305 28.9881 43.8114 29.5439 44.0698C30.0998 44.3282 30.7038 44.4578 31.3134 44.4494L41.5296 75.1048L48.0483 70.4848L35.4644 39.7817C35.3829 38.7264 34.9289 37.7387 34.1883 37.0056C33.4478 36.2725 32.4722 35.845 31.4465 35.8042C30.4208 35.7633 29.4161 36.1118 28.6229 36.7838C27.8297 37.4557 27.3031 38.4044 27.1428 39.45Z" fill="#A0616A"/>
<path d="M80.4649 49.8222C75.9281 55.1451 64.7414 64.5257 55.5257 70.9851C53.5338 72.3813 51.6327 73.6388 49.9115 74.6913C48.7489 75.4021 47.6677 76.0172 46.6945 76.519C46.0413 76.8546 45.3279 77.0474 44.5991 77.0855C43.8702 77.1235 43.1416 77.006 42.4588 76.7402C41.7761 76.4744 41.1539 76.0661 40.6313 75.5408C40.1086 75.0155 39.6968 74.3846 39.4216 73.6876L33.0405 57.7676L35.2483 56.2581L40.6921 52.5344L41.9286 51.6909L47.0334 64.2289L52.4166 59.7729L55.7586 57.006L70.9937 44.3977L72.3077 43.9954L75.3733 47.0806L77.5413 49.2637L79.5806 49.6289C79.8855 49.6835 80.1809 49.748 80.4649 49.8222Z" fill="#6C63FF"/>
<path d="M121.168 93.5642C121.485 93.9782 121.812 94.3902 122.14 94.8042C121.011 97.1935 119.743 99.5098 118.341 101.74C118.237 101.664 118.133 101.588 118.029 101.512C118.013 101.502 117.997 101.492 117.982 101.48C117.594 101.195 117.203 100.914 116.815 100.629V100.627C116.495 99.5032 116.316 98.3416 116.283 97.1708C116.483 97.1234 116.665 97.0137 116.802 96.8566C116.94 96.6994 117.028 96.5024 117.053 96.2922C117.078 96.082 117.041 95.8688 116.944 95.6816C116.848 95.4943 116.699 95.3421 116.516 95.2454C116.465 95.1537 116.429 95.0873 116.378 94.9936C116.38 94.9701 116.384 94.9447 116.385 94.9213C116.683 92.4824 119.697 91.6311 121.168 93.5642Z" fill="white"/>
<path d="M124.567 85.2068C124.794 85.8512 125.001 86.5027 125.188 87.1614C125.059 87.552 124.927 87.9412 124.792 88.3291C124.741 88.1241 124.688 87.9191 124.633 87.714C124.325 86.574 123.956 85.4527 123.526 84.3555C123.174 83.4553 122.783 82.574 122.356 81.7115C120.029 77.0264 116.657 72.9776 112.517 69.8979C110.806 69.4899 109.258 68.5508 108.08 67.2072C107.656 66.7244 107.301 66.1812 107.026 65.5943C107.2 65.5689 107.374 65.5337 107.545 65.4966C107.598 65.4849 107.653 65.4713 107.706 65.4595L107.726 65.4556C107.913 65.4111 108.083 65.312 108.216 65.1702C108.348 65.0285 108.439 64.8501 108.476 64.6567C108.513 64.4632 108.495 64.2628 108.424 64.0796C108.353 63.8964 108.233 63.7382 108.077 63.624C107.98 63.5518 107.882 63.4815 107.785 63.4112C107.637 63.2999 107.488 63.1945 107.338 63.0851C107.322 63.075 107.307 63.0639 107.293 63.0519C107.122 62.9269 106.952 62.8059 106.783 62.679C106.914 62.2439 107.14 61.8456 107.444 61.5152C108.503 60.3885 110.392 60.4139 111.627 61.3316C112.863 62.2494 113.485 63.8564 113.564 65.4224C113.634 66.7639 113.354 68.0917 112.985 69.3864C113.077 69.4566 113.174 69.523 113.267 69.5953C114.971 70.8982 116.548 72.3704 117.974 73.9907C117.15 71.9756 116.851 69.3473 117.065 67.5372C117.309 65.4752 118.281 63.5167 119.076 61.5659C120.028 59.2227 123.278 59.1915 124.194 61.5503C124.204 61.5738 124.213 61.5952 124.221 61.6187C124.067 61.7768 123.92 61.9408 123.778 62.1107C123.599 62.3248 123.488 62.5894 123.458 62.8699C123.428 63.1504 123.48 63.4337 123.609 63.6827C123.738 63.9317 123.937 64.1348 124.179 64.2655C124.422 64.3961 124.697 64.4482 124.969 64.4149L124.997 64.411C125.115 65.1071 125.182 65.8114 125.198 66.5179C125.221 68.4945 124.848 70.4549 124.103 72.2761C123.357 74.0972 122.255 75.74 120.865 77.1013C120.774 77.1892 120.685 77.2751 120.593 77.3591C121.47 78.6454 122.258 79.9942 122.95 81.3952C123.565 82.6302 124.105 83.9031 124.567 85.2068Z" fill="white"/>
<path d="M88.0823 66.8884L87.5105 107.389L41.3169 106.022L48.6939 89.2288C48.6409 88.6899 51.9318 84.9076 51.9129 84.3472C51.8561 82.705 53.0452 81.1839 53.2383 79.4655C53.6322 75.9214 51.377 62.5379 52.4165 59.7729C52.8594 58.5382 53.4267 57.355 54.1093 56.2425C54.7001 55.3209 55.306 54.6999 55.8854 54.4754L57.5933 50.3709L59.1081 48.0277L70.9936 44.3977L72.3077 43.9954L75.3732 47.0806L77.5413 49.2637L79.5806 49.6289C79.8854 49.6835 80.1808 49.748 80.4648 49.8222C81.8327 50.1475 83.1077 50.7988 84.1874 51.7241C87.7472 54.8425 88.1619 60.7083 88.0823 66.8884Z" fill="#6C63FF"/>
<path d="M114.611 107.084C113.309 108.77 111.928 110.385 110.47 111.931L105.475 111.935L78.6122 111.966L73.7762 111.972L70.5611 111.976L65.7781 111.98L62.0991 111.984L55.3033 111.992L51.2948 111.997L42.8536 112.005L38.8243 112.011L27.6583 112.023L20.6448 112.031L18.7627 112.033C18.3443 111.591 17.9321 111.143 17.5263 110.689C16.5151 109.558 15.5425 108.393 14.6084 107.192L18.5052 107.188L21.1599 107.186L27.3061 107.178L39.167 107.166L43.1755 107.163L44.7963 107.161H44.802L46.0744 107.159L46.6444 107.157L48.1043 107.155H48.7215L53.0501 107.151L62.3869 107.139L66.4957 107.135L70.4304 107.131L74.1189 107.127L79.4112 107.122L107.677 107.092L114.611 107.084Z" fill="#CCCCCC"/>
<path d="M50.7012 46.2726L50.6909 46.2736C50.1447 46.3261 49.6006 46.1526 49.1784 45.7913C48.7562 45.43 48.4905 44.9106 48.4397 44.3473L47.3629 32.4947C47.1679 30.3714 47.389 28.2294 48.0129 26.1959C49.2359 22.2272 51.8968 18.8983 55.4411 16.9029C57.2712 15.8753 59.2841 15.2405 61.3584 15.0367C69.845 14.2029 72.9463 16.0256 78.1886 29.3734C83.431 42.7212 79.2671 41.244 79.2671 41.244C79.2934 41.5297 79.2636 41.8178 79.1795 42.0914C79.0145 42.625 78.6559 43.0723 78.1787 43.3397C77.9338 43.4766 77.6648 43.5614 77.3875 43.589C67.3546 46.2189 57.231 48.9873 50.6995 46.2728L50.7012 46.2726Z" fill="#2F2E41"/>
<path d="M69.3751 26.2674C70.6346 28.189 71.3135 30.4524 71.3263 32.7718C71.3391 35.0911 70.685 37.3623 69.4468 39.2986C68.2087 41.2348 66.4418 42.7493 64.3695 43.6506C62.2972 44.5519 60.0123 44.7998 57.8035 44.3628C56.3414 44.0784 54.9485 43.4976 53.7055 42.6541C52.4626 41.8106 51.3943 40.7212 50.5625 39.4489C49.3058 37.5279 48.6287 35.2661 48.6166 32.9488C48.6046 30.6316 49.2581 28.3625 50.4948 26.4277C51.7315 24.4929 53.496 22.979 55.5659 22.0769C57.6357 21.1748 59.9182 20.9249 62.1256 21.3587C63.5889 21.6414 64.9833 22.2209 66.2277 23.0636C67.4722 23.9063 68.542 24.9954 69.3752 26.2678L69.3751 26.2674Z" fill="#9E616A"/>
<path d="M43.8052 33.8115C43.6512 32.1322 43.8261 30.4381 44.3195 28.8299C44.4339 24.8958 45.5407 21.3325 50.1936 21.4821C51.6319 20.6752 53.2128 20.1749 54.8424 20.011L57.1417 19.7768C57.1675 19.7742 57.1934 19.7716 57.2192 19.7691C58.8122 19.6163 60.4188 19.7884 61.9473 20.2758C63.4758 20.7633 64.8962 21.5564 66.1274 22.6099C67.3587 23.6634 68.3767 24.9567 69.1233 26.4159C69.8698 27.8751 70.3304 29.4717 70.4787 31.1145L70.5002 31.3519L65.6356 31.8423L63.542 27.222L63.6453 32.0439L61.1328 32.2982L60.077 29.9672L60.1286 32.3984C56.3981 35.7865 50.7413 35.9641 43.829 34.0492L43.8052 33.8115Z" fill="#2F2E41"/>
<path d="M59.3658 45.0587C59.3244 45.4492 59.3901 45.8439 59.5554 46.1978C59.6387 46.3791 59.7462 46.5474 59.8749 46.6979C59.9849 46.8261 60.1093 46.9404 60.2453 47.0385C60.6483 47.3278 61.1381 47.4596 61.6268 47.4102C61.6573 47.407 61.6876 47.4031 61.718 47.3987C61.7483 47.3943 61.7786 47.3892 61.8088 47.3833C61.8393 47.3777 61.8696 47.3712 61.8996 47.3638C61.9297 47.3565 61.9599 47.3486 61.9901 47.34L63.6879 46.8494L65.5907 41.3782L66.0269 46.1791L73.7472 43.9625L71.8963 23.5894L58.7375 24.9265L59.0984 25.2849C60.2975 26.4884 61.1513 28.0098 61.566 29.6816C61.9775 31.3757 62.1045 33.1299 61.9415 34.8682C61.7892 36.626 61.4737 38.3645 60.9991 40.0601C60.586 41.5614 60.0894 43.037 59.5117 44.4794C59.4371 44.6645 59.3879 44.8595 59.3658 45.0587Z" fill="#2F2E41"/>
<path d="M61.1203 109.292C60.8941 109.292 60.6707 109.24 60.4664 109.14L24.0129 110.099C23.7332 109.962 23.5002 109.741 23.3448 109.465C23.1894 109.189 23.1188 108.871 23.1424 108.553C23.166 108.235 23.2826 107.931 23.4769 107.683C23.6712 107.434 23.9341 107.252 24.2307 107.161L48.0795 99.828C48.3265 99.7521 48.5881 99.7418 48.84 99.798L85.7301 104.435C86.0566 104.508 86.3509 104.689 86.5683 104.95C86.7857 105.211 86.9141 105.539 86.934 105.883C86.9539 106.227 86.8641 106.568 86.6784 106.854C86.4927 107.14 86.2212 107.356 85.9055 107.468L61.6198 109.206C61.4591 109.263 61.2903 109.292 61.1203 109.292Z" fill="#3F3D56"/>
<path d="M62.461 106.675C62.2963 106.675 62.1345 106.632 61.9908 106.549L32.3853 107.976C32.2171 107.878 32.0813 107.731 31.9955 107.553C31.9096 107.375 31.8777 107.175 31.9039 106.978C31.9302 106.781 32.0133 106.597 32.1425 106.449C32.2717 106.302 32.4409 106.198 32.6283 106.151L43.3461 103.468C43.5134 103.426 43.6884 103.432 43.8531 103.483L71.3756 103.449C71.5715 103.511 71.7432 103.636 71.8653 103.806C71.9874 103.975 72.0537 104.181 72.0545 104.392C72.0552 104.603 71.9903 104.809 71.8693 104.98C71.7483 105.151 71.5776 105.277 71.382 105.34L62.7473 106.63C62.6546 106.66 62.5581 106.675 62.461 106.675Z" fill="#2F2E41"/>
<path d="M59.3448 105.048C59.8572 105.389 60.4358 105.609 61.0399 105.695C61.644 105.78 62.2589 105.727 62.8412 105.541C63.4234 105.354 63.959 105.039 64.4101 104.616C64.8613 104.193 65.217 103.673 65.4522 103.093L96.7887 105.631L95.2739 97.6253L62.9524 97.3077C61.9813 96.9648 60.9219 97.0011 59.975 97.4099C59.0281 97.8186 58.2595 98.5713 57.8148 99.5254C57.3701 100.48 57.2802 101.569 57.5622 102.587C57.8442 103.604 58.4784 104.48 59.3448 105.048Z" fill="#A0616A"/>
<path d="M77.8538 52.9094C77.8538 52.9094 82.5876 49.004 88.268 56.0336C92.0989 60.7743 99.4888 89.4328 100.101 101.309C100.14 102.06 100.028 102.812 99.7719 103.516C99.5158 104.221 99.1213 104.863 98.6132 105.403C98.105 105.944 97.4942 106.37 96.8189 106.655C96.1437 106.94 95.4185 107.078 94.689 107.061L77.9864 106.761L76.1187 95.9339L89.3056 96.0949L77.8538 52.9094Z" fill="#6C63FF"/>
<path d="M59.0927 109.297C58.5197 109.296 57.9526 109.178 57.4245 108.948L23.6367 109.743C22.745 109.36 22.0047 108.677 21.5357 107.806C21.0666 106.935 20.8962 105.927 21.0519 104.943L19.7964 74.3428C19.9629 73.2498 20.5207 72.2609 21.3598 71.5714C22.1989 70.8818 23.2582 70.5418 24.3285 70.6184L55.6966 71.9601C56.2988 72.0008 56.8859 72.1716 57.4199 72.4613C57.9539 72.7511 58.4229 73.1534 58.7964 73.6421C59.1699 74.1308 59.4397 74.695 59.5882 75.2981C59.7367 75.9013 59.7605 76.5299 59.6583 77.1431L63.3334 105.607C63.1606 106.638 62.6406 107.574 61.8649 108.248C61.0893 108.923 60.1076 109.295 59.0927 109.297Z" fill="#3F3D56"/>
<path d="M33.4363 18.193L19.3354 18.1519C18.9575 18.1515 18.5947 18.3056 18.3268 18.5805C18.0588 18.8554 17.9074 19.2286 17.9059 19.6184L17.8547 38.8736C17.8539 39.263 18.0031 39.6368 18.2693 39.9128C18.5356 40.1889 18.8973 40.3447 19.2749 40.3459L27.0969 40.3693L33.3776 40.3869C33.7555 40.3876 34.1181 40.2335 34.3859 39.9585C34.6536 39.6835 34.8045 39.3102 34.8053 38.9205L34.8091 37.7821L34.8583 19.6672C34.8591 19.2773 34.7097 18.9031 34.4431 18.6266C34.1765 18.3502 33.8143 18.1942 33.4363 18.193Z" fill="#E6E6E6"/>
<path d="M32.4423 19.3431L20.324 19.3079C19.9701 19.3075 19.6305 19.4517 19.3795 19.709C19.1286 19.9663 18.9868 20.3157 18.9853 20.6806L18.9512 33.0605C18.9488 34.6863 19.5718 36.2467 20.6836 37.3994C21.7953 38.5522 23.3051 39.2031 24.8816 39.2095L27.1841 39.2153L32.3893 39.2309C32.7433 39.2317 33.0831 39.0876 33.3341 38.8302C33.5851 38.5728 33.7267 38.2232 33.728 37.8582L33.7318 36.6124L33.7734 20.7236C33.7742 20.3586 33.6344 20.0082 33.3849 19.7493C33.1353 19.4905 32.7963 19.3443 32.4423 19.3431Z" fill="white"/>
<path d="M31.0808 27.802H21.6323C21.5578 27.802 21.4841 27.8171 21.4153 27.8465C21.3465 27.8759 21.2839 27.919 21.2313 27.9733C21.1786 28.0276 21.1369 28.0921 21.1084 28.163C21.0799 28.234 21.0652 28.31 21.0652 28.3868C21.0652 28.4636 21.0799 28.5397 21.1084 28.6106C21.1369 28.6816 21.1786 28.7461 21.2313 28.8004C21.2839 28.8547 21.3465 28.8977 21.4153 28.9271C21.4841 28.9565 21.5578 28.9716 21.6323 28.9716H31.0808C31.2312 28.9716 31.3755 28.91 31.4818 28.8004C31.5882 28.6907 31.6479 28.5419 31.6479 28.3868C31.6479 28.2317 31.5882 28.083 31.4818 27.9733C31.3755 27.8636 31.2312 27.802 31.0808 27.802Z" fill="#6C63FF"/>
<path d="M23.7094 24.5957H21.6323C21.4819 24.5957 21.3376 24.6573 21.2313 24.767C21.1249 24.8767 21.0652 25.0255 21.0652 25.1806C21.0652 25.3357 21.1249 25.4844 21.2313 25.5941C21.3376 25.7038 21.4819 25.7654 21.6323 25.7654H23.7094C23.8598 25.7654 24.0041 25.7038 24.1104 25.5941C24.2168 25.4844 24.2765 25.3357 24.2765 25.1806C24.2765 25.0255 24.2168 24.8767 24.1104 24.767C24.0041 24.6573 23.8598 24.5957 23.7094 24.5957Z" fill="#6C63FF"/>
<path d="M31.0808 32.9434H21.6323C21.4819 32.9434 21.3376 33.005 21.2313 33.1147C21.1249 33.2243 21.0652 33.3731 21.0652 33.5282C21.0652 33.6833 21.1249 33.832 21.2313 33.9417C21.3376 34.0514 21.4819 34.113 21.6323 34.113H31.0808C31.2312 34.113 31.3755 34.0514 31.4818 33.9417C31.5882 33.832 31.6479 33.6833 31.6479 33.5282C31.6479 33.3731 31.5882 33.2243 31.4818 33.1147C31.3755 33.005 31.2312 32.9434 31.0808 32.9434Z" fill="#6C63FF"/>
<path d="M31.0808 30.3737H21.6323C21.4822 30.3737 21.3382 30.4352 21.232 30.5447C21.1258 30.6542 21.0662 30.8027 21.0662 30.9575C21.0662 31.1123 21.1258 31.2609 21.232 31.3703C21.3382 31.4798 21.4822 31.5414 21.6323 31.5414H31.0808C31.231 31.5414 31.375 31.4798 31.4812 31.3703C31.5873 31.2609 31.647 31.1123 31.647 30.9575C31.647 30.8027 31.5873 30.6542 31.4812 30.5447C31.375 30.4352 31.231 30.3737 31.0808 30.3737Z" fill="#6C63FF"/>
<path d="M29.2447 26.6637C28.5813 26.6637 27.9327 26.4608 27.381 26.0807C26.8294 25.7005 26.3994 25.1603 26.1455 24.5281C25.8916 23.896 25.8252 23.2004 25.9546 22.5294C26.084 21.8583 26.4035 21.2419 26.8727 20.7581C27.3418 20.2743 27.9395 19.9448 28.5903 19.8113C29.241 19.6778 29.9155 19.7463 30.5285 20.0082C31.1414 20.27 31.6654 20.7134 32.034 21.2823C32.4026 21.8512 32.5993 22.5201 32.5993 23.2043C32.5983 24.1214 32.2445 25.0007 31.6157 25.6493C30.9868 26.2978 30.1341 26.6626 29.2447 26.6637ZM29.2447 19.9853C28.6274 19.9852 28.0239 20.174 27.5105 20.5277C26.9972 20.8815 26.5971 21.3842 26.3609 21.9724C26.1246 22.5606 26.0628 23.2078 26.1832 23.8323C26.3037 24.4567 26.601 25.0303 27.0375 25.4804C27.474 25.9306 28.0302 26.2372 28.6357 26.3614C29.2412 26.4856 29.8689 26.4219 30.4392 26.1782C31.0096 25.9346 31.4971 25.522 31.8401 24.9927C32.1831 24.4633 32.3662 23.8409 32.3662 23.2043C32.3652 22.3508 32.0361 21.5326 31.4509 20.9292C30.8657 20.3257 30.0723 19.9862 29.2447 19.9853Z" fill="#6C63FF"/>
<path d="M30.6536 24.5442C30.4219 23.3105 29.9393 22.1415 29.2376 21.1142C29.2218 21.0875 29.1996 21.0655 29.1731 21.0503C29.1467 21.035 29.1169 21.027 29.0866 21.027C29.0563 21.027 29.0266 21.035 29.0001 21.0503C28.9737 21.0655 28.9515 21.0875 28.9357 21.1142C28.3246 22.2164 27.9339 23.4339 27.7869 24.6945C27.7597 24.9243 28.1097 24.9223 28.1366 24.6945C28.1857 24.286 28.2623 23.8814 28.3658 23.4839C28.3792 23.4811 28.3923 23.477 28.4049 23.4715C28.8699 23.2308 29.3951 23.1426 29.9102 23.2187C29.9147 23.2194 29.919 23.2184 29.9235 23.2189C30.0935 23.6802 30.225 24.1557 30.3164 24.6401C30.359 24.8677 30.6961 24.7713 30.6536 24.5442ZM28.4917 23.0416C28.6522 22.5281 28.8565 22.0303 29.1023 21.554C29.3624 21.9639 29.5883 22.3958 29.7775 22.8451C29.34 22.8112 28.9008 22.8783 28.4917 23.0416Z" fill="#6C63FF"/>
</g>
<defs>
<clipPath id="clip0_1112_53">
<rect width="128" height="132" fill="white"/>
</clipPath>
</defs>
</svg>
