<svg width="138" height="96" viewBox="0 0 138 96" fill="none" xmlns="http://www.w3.org/2000/svg">
<g clip-path="url(#clip0_1112_329)">
<path d="M23.5069 76.0687L14.3682 73.1397C13.3621 68.5681 13.5877 63.8403 15.0254 59.3668C18.4923 67.0235 29.3054 69.1642 35.3092 75.3615C37.1656 77.3075 38.5208 79.6118 39.2744 82.1037C40.028 84.5955 40.1607 87.2109 39.6627 89.7562L41.4125 95.8465C36.8915 95.3709 32.5367 94.0018 28.648 91.8335C24.7594 89.6653 21.4294 86.7494 18.8874 83.2869C17.4823 81.3315 16.3513 79.2215 15.521 77.0068C19.4659 76.7501 23.5069 76.0687 23.5069 76.0687Z" fill="#F2F2F2"/>
<path d="M85.6379 6.58817V73.5368L85.3844 76.3244C84.9399 81.1633 82.7053 85.7174 79.0515 89.2311C78.5334 89.7283 77.9914 90.1991 77.4255 90.6434C76.7289 91.1945 75.9963 91.7061 75.2318 92.1755C74.7946 92.4451 74.3463 92.6996 73.8907 92.9406C71.241 94.3444 68.3142 95.2524 65.2796 95.612H43.5341C41.8037 95.6133 40.1313 95.0391 38.8272 93.9957C38.1815 93.4801 37.6404 92.8639 37.2288 92.1755C36.6536 91.2095 36.3529 90.1262 36.3543 89.0255V6.58817C36.3567 4.84156 37.1141 3.16712 38.4604 1.93208C39.8067 0.69704 41.632 0.00222002 43.536 0H78.458C78.5407 0 78.6215 0.00168353 78.7042 0.00336892C78.7575 0.00505431 78.8108 0.00674021 78.8641 0.0117964C78.9357 0.0134818 79.0074 0.0185382 79.0772 0.0252798C79.1672 0.0303359 79.2554 0.038755 79.3436 0.0488674C79.4244 0.0589797 79.5052 0.0690924 79.5861 0.0808901C79.6026 0.0825755 79.6173 0.0859451 79.6339 0.0876305C79.7367 0.102799 79.8396 0.119652 79.9407 0.139877C80.0417 0.158416 80.1446 0.180327 80.2438 0.203923C80.3155 0.220776 80.389 0.239314 80.4606 0.257854C80.4624 0.257854 80.4661 0.259541 80.4679 0.259541C80.6792 0.316844 80.8887 0.382572 81.0945 0.458423C81.1588 0.480324 81.2231 0.505615 81.2855 0.530896L81.3131 0.541008C81.3645 0.561232 81.4141 0.581456 81.4637 0.603366C81.6125 0.665725 81.7595 0.734827 81.9047 0.807299C82.1434 0.928047 82.3746 1.06084 82.5973 1.20506C82.669 1.25055 82.7388 1.29944 82.8067 1.34832C82.8637 1.38708 82.9207 1.42753 82.9758 1.47135C82.9805 1.47358 82.9848 1.47642 82.9886 1.47978C82.996 1.48483 83.0033 1.49157 83.0107 1.49663C83.0603 1.53202 83.108 1.5691 83.154 1.60618C83.244 1.67697 83.3322 1.75112 83.4185 1.82697C83.4424 1.84719 83.4663 1.86741 83.4902 1.88932C83.5141 1.90955 83.5361 1.93146 83.56 1.95337C83.5839 1.97359 83.6059 1.9955 83.628 2.01573C83.6411 2.02611 83.6534 2.03738 83.6647 2.04944C83.7309 2.11348 83.7952 2.17921 83.8576 2.24494C83.9366 2.32752 84.0138 2.41179 84.0855 2.49775C84.1479 2.56853 84.2067 2.63932 84.2637 2.71179C84.3169 2.77751 84.3665 2.84325 84.4162 2.91067C84.4295 2.92744 84.4417 2.94488 84.4529 2.96292C84.5043 3.03202 84.5521 3.1028 84.5999 3.17359C84.7193 3.35224 84.8277 3.53763 84.9269 3.72471C84.9636 3.7955 84.9986 3.8646 85.0316 3.93538C85.0739 4.02134 85.1125 4.10729 85.1492 4.19325C85.1639 4.22527 85.1768 4.25898 85.1896 4.291C85.2098 4.33988 85.2282 4.38875 85.2466 4.43763C85.2668 4.49156 85.287 4.54718 85.3054 4.60111L85.3495 4.73257C85.3752 4.81179 85.3972 4.88931 85.4193 4.96853C85.4321 5.01572 85.445 5.06291 85.456 5.11178C85.5423 5.45598 85.5982 5.80598 85.6232 6.15841C85.625 6.20223 85.6287 6.24436 85.6306 6.28818C85.6361 6.38761 85.6379 6.48704 85.6379 6.58817Z" fill="#3F3D56"/>
<path d="M35.856 29.9946C35.6418 29.9943 35.4363 29.9161 35.2848 29.7772C35.1333 29.6382 35.0481 29.4497 35.0479 29.2532V24.2118C35.0477 24.1143 35.0685 24.0178 35.109 23.9277C35.1496 23.8377 35.2091 23.7558 35.2841 23.6868C35.3592 23.6179 35.4483 23.5632 35.5465 23.5258C35.6446 23.4885 35.7498 23.4693 35.856 23.4693C35.9623 23.4693 36.0674 23.4885 36.1656 23.5258C36.2637 23.5632 36.3529 23.6179 36.4279 23.6868C36.503 23.7558 36.5625 23.8377 36.603 23.9277C36.6436 24.0178 36.6644 24.1143 36.6642 24.2118V29.2532C36.6639 29.4497 36.5787 29.6382 36.4272 29.7772C36.2757 29.9161 36.0703 29.9943 35.856 29.9946Z" fill="#3F3D56"/>
<path d="M35.6944 20.2084C35.4801 20.2081 35.2747 20.1299 35.1232 19.991C34.9717 19.852 34.8865 19.6635 34.8862 19.467V14.4256C34.8866 14.2292 34.9718 14.0409 35.1234 13.9021C35.2749 13.7633 35.4803 13.6853 35.6944 13.6853C35.9085 13.6853 36.1139 13.7633 36.2654 13.9021C36.417 14.0409 36.5023 14.2292 36.5026 14.4256V19.467C36.5023 19.6635 36.4171 19.852 36.2656 19.991C36.1141 20.1299 35.9087 20.2081 35.6944 20.2084Z" fill="#3F3D56"/>
<path d="M55.5383 2.44936C55.5386 2.2528 55.6238 2.06436 55.7753 1.92538C55.9268 1.78639 56.1322 1.70821 56.3465 1.70798H61.8421C62.0564 1.70798 62.262 1.78609 62.4135 1.92512C62.5651 2.06416 62.6502 2.25273 62.6502 2.44936C62.6502 2.64598 62.5651 2.83456 62.4135 2.97359C62.262 3.11263 62.0564 3.19073 61.8421 3.19073H56.3465C56.1322 3.1905 55.9268 3.11232 55.7753 2.97333C55.6238 2.83435 55.5386 2.64591 55.5383 2.44936Z" fill="white"/>
<path d="M35.856 38.5945C35.6418 38.5943 35.4363 38.5161 35.2848 38.3771C35.1333 38.2381 35.0481 38.0497 35.0479 37.8531V32.8118C35.0477 32.7143 35.0685 32.6178 35.109 32.5277C35.1496 32.4376 35.2091 32.3558 35.2841 32.2868C35.3592 32.2179 35.4483 32.1631 35.5465 32.1258C35.6446 32.0885 35.7498 32.0693 35.856 32.0693C35.9623 32.0693 36.0674 32.0885 36.1656 32.1258C36.2637 32.1631 36.3529 32.2179 36.4279 32.2868C36.503 32.3558 36.5625 32.4376 36.603 32.5277C36.6436 32.6178 36.6644 32.7143 36.6642 32.8118V37.8531C36.6639 38.0497 36.5787 38.2381 36.4272 38.3771C36.2757 38.5161 36.0703 38.5943 35.856 38.5945Z" fill="#3F3D56"/>
<path d="M86.1961 27.6395C85.9818 27.6393 85.7764 27.5611 85.6249 27.4221C85.4734 27.2832 85.3882 27.0947 85.3879 26.8982V21.8568C85.3878 21.7593 85.4086 21.6628 85.4491 21.5727C85.4897 21.4827 85.5491 21.4008 85.6242 21.3318C85.6993 21.2629 85.7884 21.2082 85.8866 21.1708C85.9847 21.1335 86.0899 21.1143 86.1961 21.1143C86.3023 21.1143 86.4075 21.1335 86.5057 21.1708C86.6038 21.2082 86.6929 21.2629 86.768 21.3318C86.8431 21.4008 86.9026 21.4827 86.9431 21.5727C86.9837 21.6628 87.0044 21.7593 87.0043 21.8568V26.8982C87.004 27.0947 86.9188 27.2832 86.7673 27.4221C86.6158 27.5611 86.4104 27.6393 86.1961 27.6395Z" fill="#3F3D56"/>
<path d="M64.9132 3.19073C65.3595 3.19073 65.7213 2.85881 65.7213 2.44936C65.7213 2.0399 65.3595 1.70798 64.9132 1.70798C64.4668 1.70798 64.105 2.0399 64.105 2.44936C64.105 2.85881 64.4668 3.19073 64.9132 3.19073Z" fill="white"/>
<path d="M82.0633 8.96667H39.9314C39.8826 8.96568 39.8362 8.94721 39.8021 8.91523C39.768 8.88325 39.7489 8.84028 39.7489 8.79555C39.7489 8.75081 39.768 8.70785 39.8021 8.67586C39.8362 8.64388 39.8826 8.62541 39.9314 8.62442H82.0633C82.1121 8.62541 82.1584 8.64388 82.1925 8.67586C82.2266 8.70785 82.2457 8.75081 82.2457 8.79555C82.2457 8.84028 82.2266 8.88325 82.1925 8.91523C82.1584 8.94721 82.1121 8.96568 82.0633 8.96667Z" fill="white"/>
<path d="M43.1245 7.75068C43.7283 7.75068 44.2177 7.29167 44.2177 6.72545C44.2177 6.15924 43.7283 5.70023 43.1245 5.70023C42.5207 5.70023 42.0312 6.15924 42.0312 6.72545C42.0312 7.29167 42.5207 7.75068 43.1245 7.75068Z" fill="white"/>
<path d="M46.9011 7.75068C47.5049 7.75068 47.9943 7.29167 47.9943 6.72545C47.9943 6.15924 47.5049 5.70023 46.9011 5.70023C46.2973 5.70023 45.8079 6.15924 45.8079 6.72545C45.8079 7.29167 46.2973 7.75068 46.9011 7.75068Z" fill="white"/>
<path d="M50.6777 7.75068C51.2815 7.75068 51.7709 7.29167 51.7709 6.72545C51.7709 6.15924 51.2815 5.70023 50.6777 5.70023C50.0739 5.70023 49.5845 6.15924 49.5845 6.72545C49.5845 7.29167 50.0739 7.75068 50.6777 7.75068Z" fill="white"/>
<path d="M79.7895 5.95435H77.1068C77.0537 5.95532 77.003 5.97538 76.9658 6.01022C76.9286 6.04506 76.9077 6.0919 76.9077 6.14069C76.9077 6.18947 76.9286 6.23632 76.9658 6.27116C77.003 6.306 77.0537 6.32605 77.1068 6.32703H79.7895C79.8427 6.32605 79.8933 6.306 79.9306 6.27116C79.9678 6.23632 79.9887 6.18947 79.9887 6.14069C79.9887 6.0919 79.9678 6.04506 79.9306 6.01022C79.8933 5.97538 79.8427 5.95532 79.7895 5.95435Z" fill="white"/>
<path d="M79.7895 6.65381H77.1068C77.0537 6.65478 77.003 6.67484 76.9658 6.70968C76.9286 6.74452 76.9077 6.79136 76.9077 6.84015C76.9077 6.88894 76.9286 6.93578 76.9658 6.97062C77.003 7.00546 77.0537 7.02552 77.1068 7.02649H79.7895C79.8427 7.02552 79.8933 7.00546 79.9306 6.97062C79.9678 6.93578 79.9887 6.88894 79.9887 6.84015C79.9887 6.79136 79.9678 6.74452 79.9306 6.70968C79.8933 6.67484 79.8427 6.65478 79.7895 6.65381Z" fill="white"/>
<path d="M79.7895 7.35236H77.1068C77.0537 7.35333 77.003 7.37339 76.9658 7.40823C76.9286 7.44307 76.9077 7.48991 76.9077 7.5387C76.9077 7.58749 76.9286 7.63433 76.9658 7.66917C77.003 7.70401 77.0537 7.72407 77.1068 7.72504H79.7895C79.8427 7.72407 79.8933 7.70401 79.9306 7.66917C79.9678 7.63433 79.9887 7.58749 79.9887 7.5387C79.9887 7.48991 79.9678 7.44307 79.9306 7.40823C79.8933 7.37339 79.8427 7.35333 79.7895 7.35236Z" fill="white"/>
<path d="M49.9671 35.1218C49.9853 35.3607 50.062 35.5928 50.1915 35.8007C50.4809 36.2341 50.9188 36.5672 51.4366 36.748C52.0663 36.9844 52.7683 36.9917 53.4367 36.939C54.0574 36.89 54.6719 36.7765 55.2949 36.7531C55.7768 36.739 56.2591 36.7495 56.7396 36.7847C57.672 36.8454 58.6004 36.9581 59.5229 37.0946C59.7727 37.1311 60.022 37.1704 60.2708 37.2123C60.2943 37.2142 60.3176 37.2182 60.3402 37.2242C60.3448 37.2259 60.352 37.2245 60.3562 37.2269C60.3637 37.2313 60.3258 37.2159 60.3488 37.2333C60.3808 37.2641 60.4093 37.2978 60.4339 37.3339L60.7746 37.7361C60.8641 37.8626 60.9698 37.9789 61.0893 38.0825C61.1783 38.1456 61.2857 38.1831 61.3979 38.1902C61.5102 38.1974 61.6222 38.174 61.7199 38.1228C61.822 38.0636 61.9034 37.9788 61.9544 37.8784C62.0328 37.7466 62.1263 37.6228 62.2333 37.5091C62.6387 37.0754 63.202 36.8086 63.6731 36.4436C63.9014 36.2741 64.0961 36.0698 64.249 35.8398C64.3794 35.6316 64.4604 35.4006 64.4869 35.1617C64.5283 34.6722 64.3954 34.1836 64.1082 33.7693C63.8113 33.326 63.3849 32.9679 62.8773 32.7358C62.3013 32.4823 61.6801 32.3261 61.0436 32.2748C60.3704 32.2165 59.6939 32.196 59.018 32.2133C58.2606 32.221 57.5047 32.2516 56.7501 32.305C55.9945 32.3586 55.2419 32.4349 54.4923 32.5337C53.7683 32.6176 53.0501 32.7384 52.3407 32.8954C51.7053 33.0205 51.1168 33.2963 50.634 33.6954C50.4195 33.8766 50.2492 34.0974 50.1342 34.3432C50.0193 34.589 49.9623 34.8543 49.9671 35.1218Z" fill="#E6E6E6"/>
<path d="M60.4708 33.5019H53.3023C53.1603 33.5021 53.0241 33.5539 52.9236 33.6461C52.8232 33.7382 52.7667 33.8631 52.7665 33.9934V34.0727C52.7667 34.203 52.8232 34.3279 52.9236 34.4201C53.0241 34.5122 53.1603 34.5641 53.3023 34.5643H60.4708C60.6128 34.5641 60.749 34.5122 60.8495 34.4201C60.9499 34.3279 61.0064 34.203 61.0066 34.0727V33.9934C61.0064 33.8631 60.9499 33.7382 60.8494 33.6461C60.749 33.5539 60.6128 33.5021 60.4708 33.5019Z" fill="white"/>
<path d="M60.4708 34.8503H53.3023C53.1603 34.8505 53.0241 34.9023 52.9236 34.9945C52.8232 35.0866 52.7667 35.2115 52.7665 35.3418V35.4211C52.7667 35.5514 52.8232 35.6763 52.9236 35.7685C53.0241 35.8606 53.1603 35.9124 53.3023 35.9126H60.4708C60.6128 35.9124 60.749 35.8606 60.8495 35.7685C60.9499 35.6763 61.0064 35.5514 61.0066 35.4211V35.3418C61.0064 35.2115 60.9499 35.0866 60.8494 34.9945C60.749 34.9023 60.6128 34.8505 60.4708 34.8503Z" fill="white"/>
<path d="M75.3546 25.3465C75.3364 25.5855 75.2596 25.8175 75.1301 26.0255C74.8407 26.4588 74.4029 26.792 73.8851 26.9727C73.2554 27.2091 72.5533 27.2164 71.885 27.1637C71.2642 27.1148 70.6498 27.0013 70.0267 26.9779C69.5449 26.9637 69.0626 26.9743 68.582 27.0095C67.6497 27.0702 66.7213 27.1828 65.7988 27.3194C65.549 27.3559 65.2997 27.3951 65.0509 27.4371C65.0274 27.439 65.0041 27.443 64.9814 27.4489C64.9769 27.4506 64.9696 27.4493 64.9655 27.4517C64.958 27.456 64.9959 27.4407 64.9729 27.4581C64.9409 27.4889 64.9124 27.5226 64.8878 27.5587L64.5471 27.9609C64.4575 28.0874 64.3519 28.2036 64.2324 28.3072C64.1434 28.3703 64.036 28.4078 63.9238 28.415C63.8115 28.4222 63.6995 28.3987 63.6018 28.3476C63.4997 28.2884 63.4183 28.2036 63.3672 28.1032C63.2889 27.9713 63.1954 27.8475 63.0883 27.7339C62.683 27.3001 62.1197 27.0333 61.6485 26.6684C61.4203 26.4988 61.2255 26.2946 61.0727 26.0645C60.9423 25.8564 60.8613 25.6253 60.8348 25.3865C60.7934 24.897 60.9263 24.4084 61.2135 23.9941C61.5104 23.5508 61.9368 23.1927 62.4444 22.9606C63.0204 22.707 63.6416 22.5509 64.2781 22.4996C64.9513 22.4413 65.6278 22.4207 66.3037 22.4381C67.061 22.4458 67.817 22.4764 68.5716 22.5297C69.3271 22.5834 70.0798 22.6596 70.8294 22.7585C71.5533 22.8424 72.2716 22.9631 72.9809 23.1201C73.6164 23.2452 74.2049 23.5211 74.6877 23.9202C74.9022 24.1014 75.0725 24.3221 75.1875 24.5679C75.3024 24.8138 75.3594 25.0791 75.3546 25.3465Z" fill="#E6E6E6"/>
<path d="M64.3151 24.2182V24.2975C64.3153 24.4278 64.3718 24.5527 64.4722 24.6448C64.5727 24.737 64.7088 24.7888 64.8509 24.789H72.0194C72.1614 24.7888 72.2976 24.737 72.398 24.6448C72.4985 24.5527 72.555 24.4278 72.5552 24.2975V24.2182C72.555 24.0879 72.4985 23.963 72.398 23.8708C72.2976 23.7787 72.1614 23.7268 72.0194 23.7267H64.8509C64.7088 23.7268 64.5727 23.7787 64.4722 23.8708C64.3718 23.963 64.3153 24.0879 64.3151 24.2182Z" fill="white"/>
<path d="M64.3151 25.5666V25.6459C64.3153 25.7762 64.3718 25.9011 64.4722 25.9932C64.5727 26.0854 64.7088 26.1372 64.8509 26.1374H72.0194C72.1614 26.1372 72.2976 26.0854 72.398 25.9932C72.4985 25.9011 72.555 25.7762 72.5552 25.6459V25.5666C72.555 25.4363 72.4985 25.3114 72.398 25.2192C72.2976 25.1271 72.1614 25.0752 72.0194 25.075H64.8509C64.7088 25.0752 64.5727 25.1271 64.4722 25.2192C64.3718 25.3114 64.3153 25.4363 64.3151 25.5666Z" fill="white"/>
<path d="M110.157 93.5413L107.88 93.5411L106.797 85.4868L110.157 85.487L110.157 93.5413Z" fill="#A0616A"/>
<path d="M110.096 92.8588L107.667 91.9538L107.595 91.9268L106.254 92.8588C105.518 92.8587 104.811 93.1194 104.279 93.5863C103.747 94.0532 103.433 94.6905 103.401 95.365C103.397 95.4021 103.397 95.4408 103.397 95.4796V95.5656H110.737V92.8588H110.096Z" fill="#2F2E41"/>
<path d="M104.826 91.598L102.679 92.291L98.7428 85.023L101.912 84.0001L104.826 91.598Z" fill="#A0616A"/>
<path d="M104.522 90.9727L101.903 90.8585L101.826 90.8549L100.898 92.1424C100.203 92.3665 99.6302 92.8278 99.2977 93.4301C98.9652 94.0324 98.899 94.7293 99.113 95.3753C99.123 95.4114 99.137 95.448 99.151 95.4845L99.1821 95.5656L106.106 93.3308L105.126 90.7775L104.522 90.9727Z" fill="#2F2E41"/>
<path d="M110.961 58.8125C113.044 58.7384 110.464 73.9624 110.464 73.9624C110.464 73.9624 111.218 87.3285 111.058 88.0299C110.899 88.7313 111.038 90.6231 111.038 90.6231C110.63 89.9418 106.421 90.456 106.421 90.456L105.848 76.9095L102.925 66.0557L98.8713 73.3312L102.756 84.4987C102.756 84.4987 104.33 85.8342 104.162 86.3619C103.995 86.8897 99.874 88.0799 99.1167 88.1068C98.3594 88.1337 98.7014 87.2519 98.6646 86.3835C98.6279 85.5152 95.0645 77.4671 93.8111 74.7287C92.5577 71.9904 93.5321 68.1292 94.1719 65.3235C94.8117 62.5178 98.1777 57.2524 98.1777 57.2524C102.356 52.9294 108.879 58.8866 110.961 58.8125Z" fill="#2F2E41"/>
<path d="M109.879 61.2531C104.715 61.2532 101.869 60.3049 100.358 59.4581C98.5097 58.4226 98.1935 57.3308 98.1809 57.2847L98.1772 57.2715L98.3571 55.1951L98.4358 55.0334C98.7983 54.2891 98.8464 53.4478 98.5707 52.6727L98.5651 52.6568L98.5665 52.6401L99.7741 38.2731L104.047 36.989L105.291 35.8432L110.826 35.7695L111.597 37.2038L115.961 38.7108L113.817 50.4169L112.789 52.0419L113.203 53.812L113.2 53.828L111.852 61.2099L111.777 61.2129C111.112 61.2402 110.48 61.2536 109.879 61.2531Z" fill="#E6E6E6"/>
<path d="M112.032 30.9367C111.866 32.0477 111.226 33.0527 110.253 33.731C109.279 34.4092 108.052 34.7053 106.841 34.554C105.63 34.4028 104.533 33.8167 103.793 32.9245C103.052 32.0322 102.728 30.9068 102.892 29.7956L102.901 29.7355C103.092 28.6391 103.745 27.6555 104.72 26.9969C105.694 26.3384 106.912 26.0576 108.11 26.2152C109.308 26.3728 110.391 26.9562 111.124 27.8394C111.858 28.7227 112.183 29.8351 112.031 30.9366L112.032 30.9367Z" fill="#A0616A"/>
<path d="M110.858 33.1161C111.095 32.6747 111.339 32.2008 111.272 31.7127C111.205 31.2245 110.684 30.7579 110.171 30.903C109.865 30.9898 109.633 31.2673 109.313 31.2815C108.872 31.3011 108.619 30.8384 108.482 30.4537L107.924 28.8868C107.387 29.2704 106.765 29.5406 106.101 29.6781C105.438 29.8157 104.75 29.8171 104.085 29.6825C103.567 29.5737 103.043 29.3615 102.738 28.9611C102.434 28.5606 102.436 27.9395 102.853 27.6366C103.058 27.4882 103.33 27.4318 103.526 27.2733C103.647 27.175 103.731 27.0435 103.764 26.8983C103.798 26.753 103.779 26.6017 103.712 26.4668C103.644 26.3318 103.531 26.2204 103.389 26.149C103.247 26.0775 103.084 26.0499 102.924 26.0702L104.331 25.9089L103.912 25.2135C104.071 25.313 104.251 25.3808 104.441 25.4127C104.63 25.4446 104.825 25.4399 105.012 25.3988C105.391 25.3362 105.747 25.1933 106.118 25.0979C107.015 24.8877 107.963 24.952 108.817 25.2809C109.671 25.6099 110.384 26.1856 110.849 26.9206C111.195 26.8146 111.569 26.8075 111.919 26.9004C112.27 26.9933 112.581 27.1817 112.813 27.4407C113.189 27.8792 113.292 28.4643 113.306 29.0224C113.334 30.1227 113.072 31.2129 112.544 32.201C112.392 32.5149 112.175 32.7982 111.903 33.0346C111.767 33.1518 111.604 33.2401 111.426 33.2935C111.248 33.3468 111.06 33.3638 110.874 33.3433" fill="#2F2E41"/>
<path d="M58.7073 71.0884C58.6855 71.0884 58.6638 71.088 58.6419 71.0872C58.3861 71.0787 58.1364 71.0137 57.9139 70.8976C57.6915 70.7815 57.5029 70.6179 57.3642 70.4206C56.3252 68.9961 55.0503 67.7292 53.5853 66.6655C52.6984 66.0152 51.7717 65.4106 50.8755 64.8258C48.5635 63.3178 46.3862 61.8975 45.1776 59.9349C42.5424 55.6555 45.6457 49.6949 50.0791 47.0218C55.0517 44.0237 61.5924 43.5534 67.9199 43.4918C68.5775 43.4854 69.2354 43.4823 69.8938 43.4823C81.2944 43.4863 92.6711 44.4406 103.883 46.3334C107.612 46.9644 111.515 47.7374 114.651 49.6134C117.768 51.4782 119.663 54.415 119.478 57.0953C119.208 61.0081 114.687 63.9317 110.57 64.6961C106.645 65.4241 102.568 64.9321 98.2524 64.4111C97.2995 64.2962 96.3144 64.1773 95.3401 64.0739C84.7521 62.9512 64.8619 66.4116 64.0204 66.5595L63.1856 66.7061L59.9463 70.5301C59.8006 70.7044 59.613 70.8455 59.398 70.9423C59.1831 71.0392 58.9467 71.0892 58.7073 71.0884Z" fill="#6C63FF"/>
<path d="M105.857 52.0004H61.1049C60.8467 52.0004 60.599 51.9063 60.4164 51.7388C60.2338 51.5713 60.1312 51.3441 60.1312 51.1072C60.1312 50.8703 60.2338 50.6431 60.4164 50.4756C60.599 50.3081 60.8467 50.214 61.1049 50.214H105.857C106.115 50.214 106.363 50.3081 106.545 50.4756C106.728 50.6431 106.831 50.8703 106.831 51.1072C106.831 51.3441 106.728 51.5713 106.545 51.7388C106.363 51.9063 106.115 52.0004 105.857 52.0004Z" fill="white"/>
<path d="M105.857 57.4832H61.1049C60.9769 57.4834 60.8502 57.4605 60.7319 57.4158C60.6136 57.3711 60.5061 57.3054 60.4155 57.2225C60.3249 57.1397 60.253 57.0412 60.2039 56.9328C60.1548 56.8245 60.1294 56.7083 60.1293 56.5909C60.1291 56.4735 60.1542 56.3573 60.2031 56.2488C60.2519 56.1404 60.3236 56.0418 60.4141 55.9587C60.5045 55.8757 60.6118 55.8098 60.73 55.7649C60.8482 55.7199 60.9749 55.6968 61.1028 55.6967H105.857C106.115 55.6971 106.362 55.7913 106.544 55.9588C106.727 56.1263 106.829 56.3533 106.829 56.59C106.829 56.8267 106.727 57.0537 106.544 57.2211C106.362 57.3886 106.115 57.4829 105.857 57.4832Z" fill="white"/>
<path d="M66.3201 62.9658H61.1049C60.8469 62.9655 60.5996 62.8712 60.4173 62.7037C60.235 62.5363 60.1326 62.3092 60.1326 62.0726C60.1326 61.8359 60.235 61.6089 60.4173 61.4414C60.5996 61.2739 60.8469 61.1796 61.1049 61.1793H66.3201C66.5781 61.1796 66.8254 61.2739 67.0078 61.4414C67.1901 61.6089 67.2925 61.8359 67.2925 62.0726C67.2925 62.3092 67.1901 62.5363 67.0078 62.7037C66.8254 62.8712 66.5781 62.9655 66.3201 62.9658Z" fill="white"/>
<path d="M109.54 66.0533C109.809 65.9573 110.052 65.8083 110.251 65.6168C110.451 65.4253 110.603 65.196 110.695 64.9449C110.788 64.6939 110.819 64.4274 110.787 64.164C110.755 63.9006 110.661 63.6469 110.511 63.4206L115.382 47.5277L111.108 47.118L107.664 62.869C107.266 63.1259 106.985 63.5077 106.874 63.942C106.762 64.3763 106.829 64.8329 107.06 65.2254C107.291 65.6179 107.671 65.919 108.128 66.0716C108.585 66.2242 109.087 66.2177 109.54 66.0533Z" fill="#A0616A"/>
<path d="M116.102 38.8034C116.102 38.8034 117.145 38.8378 116.63 40.8107C116.217 42.3901 114.701 52.298 113.516 54.2735C113.772 54.4851 113.944 54.7687 114.005 55.0798C114.066 55.3909 114.012 55.7117 113.852 55.9918L109.129 54.2047C108.737 53.2056 109.041 52.2986 109.487 52.2183L110.039 49.3287L110.852 39.6352L115.349 38.7663L116.102 38.8034Z" fill="#E6E6E6"/>
<path d="M90.4419 64.7631C90.2685 64.5511 90.1478 64.3069 90.0885 64.0476C90.0291 63.7882 90.0324 63.5201 90.0982 63.2621C90.164 63.0041 90.2907 62.7624 90.4693 62.5542C90.6479 62.3459 90.8741 62.1761 91.132 62.0567L96.1406 46.1999L100.006 47.9215L93.8673 62.9669C94.0572 63.3777 94.0763 63.838 93.9209 64.2608C93.7655 64.6835 93.4465 65.0393 93.0242 65.2607C92.602 65.4821 92.1059 65.5537 91.63 65.462C91.154 65.3703 90.7313 65.1216 90.4419 64.7631V64.7631Z" fill="#A0616A"/>
<path d="M100.549 38.4413C100.549 38.4413 99.6432 37.9653 98.9459 39.8906C98.3876 41.4319 93.9736 50.581 93.8435 52.8328C93.5043 52.8885 93.195 53.0461 92.9643 53.2808C92.7335 53.5155 92.5944 53.814 92.569 54.1292L97.6087 54.8986C98.5168 54.2401 98.7808 53.3226 98.4481 53.0383L99.6422 50.317L104.53 41.6903L101.21 38.7746L100.549 38.4413Z" fill="#E6E6E6"/>
<path d="M137.781 95.9482L0.218734 96C0.160826 95.9999 0.105348 95.9787 0.0644603 95.941C0.0235725 95.9034 0.000610352 95.8525 0.000610352 95.7994C0.000610352 95.7462 0.0235725 95.6953 0.0644603 95.6577C0.105348 95.62 0.160826 95.5988 0.218734 95.5987L137.781 95.5469C137.839 95.547 137.895 95.5682 137.936 95.6059C137.976 95.6435 137.999 95.6944 137.999 95.7475C137.999 95.8007 137.976 95.8516 137.936 95.8892C137.895 95.9269 137.839 95.9481 137.781 95.9482Z" fill="#CACACA"/>
<path d="M59.1382 87.0419C57.7315 87.0419 56.3564 86.6592 55.1867 85.9423C54.0171 85.2253 53.1055 84.2063 52.5672 83.0141C52.0288 81.8219 51.888 80.51 52.1624 79.2443C52.4369 77.9787 53.1142 76.8161 54.1089 75.9036C55.1036 74.9912 56.371 74.3697 57.7506 74.118C59.1303 73.8662 60.5604 73.9954 61.86 74.4893C63.1596 74.9831 64.2705 75.8194 65.052 76.8924C65.8335 77.9653 66.2506 79.2268 66.2506 80.5172C66.2485 82.2471 65.4985 83.9055 64.1651 85.1287C62.8317 86.3519 61.0239 87.0399 59.1382 87.0419ZM59.1382 74.3297C57.8042 74.3297 56.5001 74.6926 55.3909 75.3725C54.2817 76.0524 53.4171 77.0187 52.9066 78.1494C52.3961 79.28 52.2625 80.5241 52.5228 81.7244C52.7831 82.9246 53.4255 84.0271 54.3688 84.8925C55.3121 85.7578 56.5139 86.3471 57.8223 86.5859C59.1307 86.8246 60.4869 86.7021 61.7194 86.2338C62.9519 85.7655 64.0053 84.9724 64.7465 83.9548C65.4876 82.9373 65.8832 81.741 65.8832 80.5172C65.8812 78.8768 65.1699 77.304 63.9054 76.144C62.6409 74.9841 60.9265 74.3316 59.1382 74.3297Z" fill="white"/>
<path d="M58.6196 83.0576C58.6048 83.0576 58.59 83.0571 58.5752 83.0565C58.4447 83.0507 58.3172 83.0191 58.2012 82.9638C58.0853 82.9086 57.9838 82.831 57.9036 82.7363L56.7457 81.3707C56.6725 81.2846 56.6186 81.186 56.5871 81.0807C56.5555 80.9754 56.5468 80.8654 56.5616 80.757C56.5763 80.6486 56.6142 80.544 56.673 80.449C56.7319 80.3541 56.8106 80.2707 56.9045 80.2037L56.9462 80.1739C57.0402 80.1068 57.1477 80.0573 57.2625 80.0283C57.3773 79.9993 57.4972 79.9914 57.6154 80.0049C57.7336 80.0185 57.8477 80.0532 57.9512 80.1073C58.0547 80.1613 58.1456 80.2335 58.2187 80.3198C58.2772 80.3887 58.3512 80.4451 58.4357 80.4854C58.5201 80.5256 58.6131 80.5486 58.7082 80.5529C58.8032 80.5571 58.8982 80.5425 58.9865 80.51C59.0748 80.4775 59.1545 80.4278 59.22 80.3645L61.571 78.0876C61.7365 77.9277 61.9644 77.8345 62.2047 77.8286C62.4449 77.8226 62.678 77.9042 62.8527 78.0557L62.8913 78.0894C62.9777 78.1645 63.0472 78.2545 63.0957 78.3542C63.1442 78.4539 63.1709 78.5615 63.1741 78.6706C63.1773 78.7798 63.157 78.8885 63.1145 78.9905C63.0719 79.0925 63.0078 79.1858 62.9259 79.265L59.2774 82.7978C59.1928 82.8799 59.0908 82.9452 58.9777 82.9899C58.8646 83.0346 58.7427 83.0576 58.6196 83.0576Z" fill="#6C63FF"/>
</g>
<defs>
<clipPath id="clip0_1112_329">
<rect width="138" height="96" fill="white"/>
</clipPath>
</defs>
</svg>
