<svg width="113" height="103" viewBox="0 0 113 103" fill="none" xmlns="http://www.w3.org/2000/svg">
<g clip-path="url(#clip0_1112_373)">
<path d="M102.948 82.5193L93.7755 69.0802C93.7755 69.0802 107.667 73.8636 106.091 82.5193H102.948Z" fill="#E5E5E5"/>
<path d="M7.86336 82.6085L7.51514 82.6018C7.64982 78.7828 8.06293 74.9784 8.75128 71.2179C10.2571 63.1668 12.761 57.8792 16.1935 55.5021L16.3934 55.7832C8.37516 61.3361 7.86744 82.3963 7.86336 82.6085Z" fill="#E5E5E5"/>
<path d="M12.2163 82.5263L11.868 82.5196C11.8755 82.1392 12.0932 73.1748 15.6712 70.697L15.8711 70.9781C12.4375 73.3559 12.218 82.4349 12.2163 82.5263Z" fill="#E5E5E5"/>
<path d="M18.3746 55.8144C19.3362 55.8144 20.1157 55.0455 20.1157 54.097C20.1157 53.1485 19.3362 52.3796 18.3746 52.3796C17.413 52.3796 16.6334 53.1485 16.6334 54.097C16.6334 55.0455 17.413 55.8144 18.3746 55.8144Z" fill="#6C63FF"/>
<path d="M17.5123 70.5836C18.4739 70.5836 19.2534 69.8148 19.2534 68.8663C19.2534 67.9178 18.4739 67.1489 17.5123 67.1489C16.5507 67.1489 15.7711 67.9178 15.7711 68.8663C15.7711 69.8148 16.5507 70.5836 17.5123 70.5836Z" fill="#6C63FF"/>
<path d="M11.4046 56.8438C11.7319 58.9054 10.879 60.7492 10.879 60.7492C10.879 60.7492 9.49561 59.2507 9.16839 57.1892C8.84117 55.1276 9.69402 53.2838 9.69402 53.2838C9.69402 53.2838 11.0774 54.7823 11.4046 56.8438Z" fill="#E5E5E5"/>
<path d="M17.0959 61.8506C15.0949 62.5276 13.1055 62.0205 13.1055 62.0205C13.1055 62.0205 14.3605 60.4158 16.3616 59.7388C18.3626 59.0618 20.352 59.5688 20.352 59.5688C20.352 59.5688 19.097 61.1736 17.0959 61.8506Z" fill="#E5E5E5"/>
<path d="M17.1603 74.9302C16.2546 75.2108 15.2901 75.2519 14.3633 75.0493C14.9518 74.3103 15.7444 73.7549 16.6455 73.45C17.5467 73.1451 18.5181 73.1037 19.4425 73.3309C18.8369 74.0519 18.0499 74.6034 17.1603 74.9302Z" fill="#E5E5E5"/>
<path d="M112.826 82.8628H0.174114C0.127936 82.8628 0.083652 82.8447 0.0509993 82.8125C0.0183466 82.7802 0 82.7366 0 82.691C0 82.6455 0.0183466 82.6018 0.0509993 82.5696C0.083652 82.5374 0.127936 82.5193 0.174114 82.5193H112.826C112.872 82.5193 112.916 82.5374 112.949 82.5696C112.982 82.6018 113 82.6455 113 82.691C113 82.7366 112.982 82.7802 112.949 82.8125C112.916 82.8447 112.872 82.8628 112.826 82.8628Z" fill="#CBCBCB"/>
<path d="M71.3505 90.7798L69.9261 94.4366L54.9481 90.7575L57.0504 85.3604L71.3505 90.7798Z" fill="#FFB7B7"/>
<path d="M75.3075 91.2089L70.7146 103L70.5633 102.943C69.3293 102.475 68.3342 101.543 67.7969 100.352C67.2595 99.1604 67.2239 97.8073 67.6979 96.5901L67.698 96.5898L70.5033 89.3882L75.3075 91.2089Z" fill="#2F2E41"/>
<path d="M48.5908 44.9933L42.0636 45.5961L41.7397 64.752C41.8263 65.6908 42.2821 66.5588 43.0095 67.1702C43.737 67.7815 44.6783 68.0876 45.6317 68.0228L49.7701 67.7416L48.5908 44.9933Z" fill="#E5E5E5"/>
<path d="M71.6022 44.0505L67.136 43.9938L66.8715 66.7549C67.8584 66.7874 68.8415 66.6189 69.7595 66.2601C70.6775 65.9012 71.5107 65.3596 72.207 64.6691C72.9034 63.9785 73.4481 63.1539 73.807 62.2465C74.166 61.3392 74.3316 60.3686 74.2934 59.3953L71.6022 44.0505Z" fill="#E5E5E5"/>
<path d="M45.6877 74.8409C45.5819 75.5011 45.4284 76.153 45.2283 76.7916C45.0029 77.4166 44.655 77.9947 44.4489 78.6262C43.7921 80.6392 44.7026 82.8836 46.1569 84.4374C47.4181 85.7794 49.046 86.7328 50.8443 87.1827C52.1563 87.5082 53.5204 87.555 54.8725 87.6002C58.6164 87.7255 62.4567 87.8375 66.0043 86.6507C67.1251 86.2665 68.2077 85.7814 69.2384 85.2016C69.5638 85.0486 69.8505 84.826 70.0775 84.5498C70.3481 84.1699 70.3827 83.6771 70.3804 83.2128C70.3724 81.6473 70.0506 80.0899 70.127 78.5262C70.1693 77.6601 70.3337 76.7946 70.2528 75.9312C70.1408 74.9505 69.7243 74.028 69.0603 73.2898C68.3963 72.5516 67.5173 72.0339 66.5435 71.8074C65.5371 71.5943 64.4933 71.7104 63.4687 71.8076C60.8091 72.0597 58.1383 72.1775 55.4665 72.1605C52.7367 72.1433 50.0237 71.7323 47.3074 71.6894C46.5041 71.6767 46.5203 71.921 46.2646 72.6878C46.0291 73.3935 45.8364 74.1125 45.6877 74.8409Z" fill="#2F2E41"/>
<path d="M35.0129 73.5686C34.2788 73.3866 33.5225 73.3073 32.766 73.333C31.9712 73.3763 31.1949 73.586 30.4886 73.9482C29.7824 74.3104 29.1624 74.8167 28.6699 75.4335C28.1774 76.0504 27.8237 76.7635 27.6322 77.5256C27.4408 78.2877 27.4161 79.0813 27.5596 79.8535C27.7429 80.6901 28.0425 81.4976 28.45 82.2532C29.0459 83.446 29.7605 84.636 30.8637 85.4003C31.509 85.8475 32.2558 86.1262 32.9938 86.4004L38.8038 88.5593C39.6585 88.8768 40.5133 89.1945 41.3765 89.489C45.713 90.9674 50.2341 91.8539 54.8141 92.1239C56.2092 92.2058 57.6254 92.2286 58.9863 91.9154C59.3093 91.841 59.6538 91.7302 59.8408 91.4601C59.9516 91.2697 60.0169 91.057 60.0317 90.8381L60.3893 88.3694C60.4396 88.0218 60.488 87.656 60.3589 87.3288C60.1951 86.9139 59.7846 86.6529 59.3931 86.4312C55.5735 84.2673 51.1136 83.0735 47.8986 80.1037C47.1417 79.4046 46.5083 78.2963 45.5887 77.8214C44.5459 77.2829 43.3178 76.9755 42.2399 76.4792C39.8835 75.3943 37.5668 74.1476 35.0129 73.5686Z" fill="#2F2E41"/>
<path opacity="0.1" d="M40.8133 76.8966C42.8669 77.5313 51.5371 81.9285 53.0232 83.4638C52.824 83.5346 46.0654 79.7987 45.8626 79.7387C44.0191 79.193 42.1655 78.6437 40.4148 77.8451C40.0627 77.6844 38.1269 76.9293 38.2146 76.491C38.3135 75.9964 40.4487 76.784 40.8133 76.8966Z" fill="black"/>
<path d="M53.2069 38.5549L47.6777 42.6957C47.6777 42.6957 41.8434 42.8758 42.0405 46.5544C42.2377 50.233 44.5727 67.65 44.5727 67.65L45.0793 73.6428L54.6892 76.3436C59.8815 77.8028 65.3673 77.9188 70.6182 76.6803L69.4762 70.6682C69.4762 70.6682 74.1005 43.3636 71.3147 42.1614C68.5289 40.9593 66.7877 41.3027 66.7877 41.3027L63.2959 38.2973L53.2069 38.5549Z" fill="#E5E5E5"/>
<path d="M69.5737 31.8665C69.5737 37.242 64.5343 36.4289 58.318 36.4289C52.1016 36.4289 47.0623 37.242 47.0623 31.8665C47.0623 26.491 49.5238 16.9625 58.318 16.9625C67.4151 16.9625 69.5737 26.491 69.5737 31.8665Z" fill="#2F2E41"/>
<path d="M64.1689 33.6882C67.1267 30.7707 67.1267 26.0406 64.1689 23.1232C61.211 20.2058 56.4154 20.2058 53.4576 23.1232C50.4997 26.0406 50.4997 30.7707 53.4576 33.6882C56.4154 36.6056 61.211 36.6056 64.1689 33.6882Z" fill="#FFB7B7"/>
<path d="M49.5292 28.2165H52.5249L53.8464 24.5665L54.1107 28.2165H55.5425L56.3134 26.0874L56.4676 28.2165H67.1066C67.1066 26.1191 66.2619 24.1076 64.7583 22.6245C63.2546 21.1414 61.2153 20.3083 59.0888 20.3083H57.5469C55.4205 20.3083 53.3811 21.1414 51.8775 22.6245C50.3739 24.1076 49.5292 26.1191 49.5292 28.2165Z" fill="#2F2E41"/>
<path d="M65.9172 39.4136H50.7693V57.4458H65.9172V39.4136Z" fill="#6C63FF"/>
<path d="M51.6041 90.6081L53.0287 94.2648L68.0067 90.5857L65.9043 85.1886L51.6041 90.6081Z" fill="#FFB7B7"/>
<path d="M52.4513 89.2165L55.2566 96.4181L55.2567 96.4184C55.7307 97.6356 55.6951 98.9886 55.1578 100.18C54.6204 101.371 53.6253 102.303 52.3913 102.771L52.2401 102.828L47.6471 91.0372L52.4513 89.2165Z" fill="#2F2E41"/>
<path d="M81.5437 72.1689C82.7469 71.8713 83.9943 71.7872 85.2274 71.9206C86.2122 72.0276 87.2268 72.2979 87.9459 72.9703C88.821 73.7886 89.1022 75.0541 89.1257 76.2433C89.1641 78.6119 88.3677 80.9202 86.8723 82.7739C86.5071 83.2427 86.0729 83.6551 85.584 83.9971C85.0566 84.3225 84.4945 84.5897 83.9079 84.7938L70.8967 89.8557C67.4738 91.1874 64.0387 92.5229 60.4684 93.4008C60.2743 93.4933 60.0509 93.5058 59.8474 93.4358C59.6438 93.3658 59.4769 93.2189 59.3832 93.0274C59.3803 93.0216 59.3775 93.0157 59.3748 93.0097C58.2348 91.4036 57.2784 89.6781 56.5231 87.8645C56.4873 87.8214 56.4626 87.7705 56.4511 87.716C56.4395 87.6614 56.4414 87.605 56.4567 87.5514C56.4719 87.4977 56.5 87.4485 56.5386 87.4079C56.5772 87.3672 56.6252 87.3364 56.6785 87.3179L65.8814 82.1024C66.5405 81.7288 67.2071 81.3499 67.7545 80.8294C68.1522 80.4492 68.4779 80.002 68.7161 79.5089C68.9069 79.1159 68.9247 78.1885 69.1684 77.898C69.4069 77.6136 70.2231 77.5909 70.6 77.479C71.1315 77.3184 71.6521 77.1243 72.1585 76.8979C74.2171 75.9895 76.0503 74.6697 78.0237 73.6061C79.1306 72.9819 80.3134 72.4989 81.5437 72.1689Z" fill="#2F2E41"/>
<path opacity="0.1" d="M76.3264 76.0637C74.7453 77.235 72.6981 78.3117 71.1311 79.5139C70.5963 79.9241 61.6809 84.868 61.5548 85.5246C63.0168 85.7676 72.3295 79.3416 73.6619 78.7004C74.9943 78.0592 76.1755 77.1549 77.3459 76.2574C77.6442 76.0286 78.9082 75.341 78.052 75.0855C77.5697 74.9415 76.6825 75.8296 76.3264 76.0637Z" fill="black"/>
<path d="M104.745 30.8635C107.749 30.8635 110.185 28.4609 110.185 25.4971C110.185 22.5334 107.749 20.1308 104.745 20.1308C101.74 20.1308 99.304 22.5334 99.304 25.4971C99.304 28.4609 101.74 30.8635 104.745 30.8635Z" fill="#F1F1F1"/>
<path d="M94.6754 31.8247C96.7832 31.8247 98.492 30.1393 98.492 28.0602C98.492 25.9811 96.7832 24.2957 94.6754 24.2957C92.5675 24.2957 90.8588 25.9811 90.8588 28.0602C90.8588 30.1393 92.5675 31.8247 94.6754 31.8247Z" fill="#F1F1F1"/>
<path d="M24.7613 29.369C26.4514 29.369 27.8215 28.0176 27.8215 26.3506C27.8215 24.6835 26.4514 23.3321 24.7613 23.3321C23.0712 23.3321 21.701 24.6835 21.701 26.3506C21.701 28.0176 23.0712 29.369 24.7613 29.369Z" fill="#F1F1F1"/>
<path d="M29.7997 31.3987C30.9853 31.3987 31.9464 30.4507 31.9464 29.2813C31.9464 28.1119 30.9853 27.1639 29.7997 27.1639C28.6141 27.1639 27.653 28.1119 27.653 29.2813C27.653 30.4507 28.6141 31.3987 29.7997 31.3987Z" fill="#F1F1F1"/>
<path d="M59.4867 4.61463C60.7787 4.61463 61.826 3.58161 61.826 2.30731C61.826 1.03302 60.7787 0 59.4867 0C58.1948 0 57.1475 1.03302 57.1475 2.30731C57.1475 3.58161 58.1948 4.61463 59.4867 4.61463Z" fill="#F1F1F1"/>
<path opacity="0.17" d="M45.5459 50.9199L45.755 49.3279C45.755 49.3279 53.5551 49.8895 52.3363 51.7786C51.1175 53.6677 48.1576 53.8395 48.1576 53.8395L45.5459 50.9199Z" fill="#2F2E41"/>
<path d="M51.4337 43.9977C51.8805 44.0462 52.3109 44.1917 52.6939 44.4237C53.077 44.6557 53.4032 44.9684 53.6492 45.3395C53.8734 45.6781 54.0259 46.0579 54.0975 46.4561C54.1691 46.8543 54.1583 47.2627 54.0659 47.6567C53.9735 48.0507 53.8013 48.4222 53.5597 48.7489C53.318 49.0756 53.0119 49.3507 52.6598 49.5578C52.5306 49.6331 52.3959 49.6984 52.2566 49.7533L47.4621 64.2182C47.3232 64.5036 47.1285 64.7591 46.8891 64.97C46.6497 65.181 46.3704 65.3432 46.0673 65.4473C45.7642 65.5514 45.4432 65.5954 45.1227 65.5767C44.8023 65.5581 44.4888 65.4771 44.2002 65.3385C43.9115 65.1999 43.6536 65.0065 43.441 64.7692C43.2285 64.5319 43.0656 64.2556 42.9617 63.956C42.8578 63.6565 42.8149 63.3396 42.8356 63.0237C42.8563 62.7077 42.9401 62.3989 43.0822 62.115L48.1809 47.8107C48.042 47.3374 48.0236 46.8377 48.1271 46.3557C48.2307 45.8737 48.4532 45.4243 48.7748 45.0473C49.0964 44.6703 49.5073 44.3773 49.971 44.1942C50.4348 44.0111 50.9372 43.9437 51.4337 43.9977Z" fill="#FFB7B7"/>
<path d="M45.6175 49.4636C45.6175 49.4636 48.3647 54.0931 52.3364 51.7786L48.4873 66.3072H45.2443L41.8895 65.6892L42.8289 59.6866L45.6175 49.4636Z" fill="#E5E5E5"/>
<path d="M65.2331 52.6279L62.9573 49.5461C62.9573 49.5461 64.0511 46.3496 68.2923 47.5185C68.2923 47.5185 70.9912 53.4771 65.2331 52.6279Z" fill="#E5E5E5"/>
<path opacity="0.17" d="M65.2331 52.6279L62.9573 49.5461C62.9573 49.5461 64.0511 46.3496 68.2923 47.5185C68.2923 47.5185 70.9912 53.4771 65.2331 52.6279Z" fill="#2F2E41"/>
<path d="M65.8356 41.8607C66.4922 42.1617 67.0174 42.6852 67.3156 43.3359C67.6139 43.9867 67.6654 44.7214 67.4609 45.4064L72.5596 59.7107C72.7017 59.9946 72.7855 60.3034 72.8062 60.6194C72.8269 60.9354 72.7841 61.2522 72.6802 61.5518C72.5763 61.8514 72.4134 62.1278 72.2009 62.3651C71.9883 62.6023 71.7303 62.7958 71.4417 62.9344C71.1531 63.073 70.8395 63.1539 70.5191 63.1726C70.1986 63.1913 69.8776 63.1473 69.5745 63.0431C69.2713 62.939 68.992 62.7768 68.7527 62.5658C68.5133 62.3549 68.3185 62.0993 68.1796 61.8139L63.3852 47.349C63.2459 47.2941 63.1111 47.2288 62.982 47.1536C62.6298 46.9465 62.3238 46.6713 62.0821 46.3446C61.8405 46.0179 61.6683 45.6464 61.5759 45.2524C61.4834 44.8584 61.4727 44.45 61.5443 44.0518C61.6159 43.6537 61.7684 43.2738 61.9925 42.9352C62.2386 42.5642 62.5648 42.2514 62.9479 42.0194C63.3309 41.7874 63.7613 41.6419 64.2081 41.5934C64.7653 41.5311 65.329 41.6237 65.8356 41.8607Z" fill="#FFB7B7"/>
<path d="M62.9573 49.5461C62.9573 49.5461 66.7122 51.7933 68.2923 47.5185L73.5834 61.2597L72.0112 63.9718L71.7838 63.9905C70.8459 64.0677 69.903 63.9191 69.0361 63.5576C68.1692 63.196 67.4043 62.6323 66.807 61.9149C65.5886 60.4516 64.7593 58.7119 64.3938 56.853L62.9573 49.5461Z" fill="#E5E5E5"/>
</g>
<defs>
<clipPath id="clip0_1112_373">
<rect width="113" height="103" fill="white"/>
</clipPath>
</defs>
</svg>
